<?xml version="1.0" encoding="utf-8"?>
<!-- Generator: Adobe Illustrator 25.0.0, SVG Export Plug-In . SVG Version: 6.00 Build 0)  -->
<svg version="1.1" id="pause-circle" xmlns="http://www.w3.org/2000/svg" xmlns:xlink="http://www.w3.org/1999/xlink" x="0px"
	 y="0px" viewBox="0 0 673.8 673.8" style="enable-background:new 0 0 673.8 673.8;" xml:space="preserve">
<style type="text/css">
	.st0{fill:#FFFFFF;}
</style>
<g id="SVGRepo_bgCarrier">
</g>
<g id="SVGRepo_tracerCarrier">
</g>
<circle id="primary" class="st0" cx="336.7" cy="340.5" r="333.3"/>
<path id="secondary" d="M435,511.9c-27,0-49.1-15.7-49.1-35.1V197c0-19.4,21.9-35.1,49.1-35.1c27.2,0,49.1,15.7,49.1,35.1v279.8
	C483.9,496.2,462,511.9,435,511.9z M238.8,511.9c-27,0-49.1-15.7-49.1-35.1V197c0-19.4,21.9-35.1,49.1-35.1
	c27,0,49.1,15.7,49.1,35.1v279.8C287.9,496.2,265.9,511.9,238.8,511.9z"/>
</svg>
