<?xml version="1.0" encoding="utf-8"?>
<!-- Generator: Adobe Illustrator 25.0.0, SVG Export Plug-In . SVG Version: 6.00 Build 0)  -->
<svg version="1.1" id="Capa_1" xmlns="http://www.w3.org/2000/svg" xmlns:xlink="http://www.w3.org/1999/xlink" x="0px" y="0px"
	 viewBox="0 0 18.7 23.7" style="enable-background:new 0 0 18.7 23.7;" xml:space="preserve">
<style type="text/css">
	.st0{fill:#1ED760;}
</style>
<g>
	<path class="st0" d="M0.4,8.2C0.4,8.1,0.5,8,0.6,8h2.3C2.9,8,3,8.1,3,8.2v15.1c0,0.1-0.1,0.1-0.1,0.1H0.6c-0.1,0-0.1-0.1-0.1-0.1
		V8.2z M5.5,0.5c0-0.1,0.1-0.1,0.1-0.1H8c0.1,0,0.1,0.1,0.1,0.1v22.9c0,0.1-0.1,0.1-0.1,0.1H5.7c-0.1,0-0.1-0.1-0.1-0.1V0.5z
		 M10.6,12c0-0.1,0.1-0.1,0.1-0.1H13c0.1,0,0.1,0.1,0.1,0.1v11.3c0,0.1-0.1,0.1-0.1,0.1h-2.3c-0.1,0-0.1-0.1-0.1-0.1V12z M15.6,4.3
		c0-0.1,0.1-0.1,0.1-0.1h2.3c0.1,0,0.1,0.1,0.1,0.1v19c0,0.1-0.1,0.1-0.1,0.1h-2.3c-0.1,0-0.1-0.1-0.1-0.1V4.3z"/>
</g>
</svg>
