<?xml version="1.0" encoding="utf-8"?>
<!-- Generator: Adobe Illustrator 25.0.0, SVG Export Plug-In . SVG Version: 6.00 Build 0)  -->
<svg version="1.1" id="Capa_1" xmlns="http://www.w3.org/2000/svg" xmlns:xlink="http://www.w3.org/1999/xlink" x="0px" y="0px"
	 viewBox="0 0 24 24" style="enable-background:new 0 0 24 24;" xml:space="preserve">
<style type="text/css">
	.st0{fill:#1DB954;}
</style>
<path class="st0" d="M5,4v16h14V4H5z M4,2h16c0.6,0,1,0.4,1,1v18c0,0.6-0.4,1-1,1H4c-0.6,0-1-0.4-1-1V3C3,2.4,3.4,2,4,2z M12,17
	c1.4,0,2.5-1.1,2.5-2.5S13.4,12,12,12s-2.5,1.1-2.5,2.5S10.6,17,12,17z M12,19c-2.5,0-4.5-2-4.5-4.5S9.5,10,12,10
	c2.5,0,4.5,2,4.5,4.5S14.5,19,12,19z M12,8.5c-0.8,0-1.5-0.7-1.5-1.5s0.7-1.5,1.5-1.5s1.5,0.7,1.5,1.5S12.8,8.5,12,8.5z"/>
</svg>
